<svg id="Logos" xmlns="http://www.w3.org/2000/svg" xmlns:xlink="http://www.w3.org/1999/xlink" viewBox="0 0 125 125"><defs><style>.cls-1{fill:url(#linear-gradient);}</style><linearGradient id="linear-gradient" x1="62" y1="87.4" x2="62" gradientUnits="userSpaceOnUse"><stop offset="0" stop-color="#6949e4"/><stop offset="1" stop-color="#6ac2ea"/></linearGradient><symbol id="Logomark" data-name="Logomark" viewBox="0 0 124 87.4"><path class="cls-1" d="M32.35,59.11c0-7.72-11.7-19.61-19.61-19.61a6.27,6.27,0,0,0-5.81,4.08C3.7,51.91,2.26,56.37.85,64c0,.12,0,.26-.07.38v0a47.71,47.71,0,0,0-.64,4.8,1.8,1.8,0,0,0,0,.22c-.6,7.59,1,13.77,6.3,17.06a6.14,6.14,0,0,0,6.92-.34c3.63-2.76,7.82-7.2,12.13-12C25.47,74.16,32.35,66.86,32.35,59.11Zm66.18,15c4.31,4.79,8.5,9.23,12.13,12a6.14,6.14,0,0,0,6.92.34c5.33-3.29,6.9-9.47,6.3-17.06a1.8,1.8,0,0,0,0-.22,47.71,47.71,0,0,0-.64-4.8v0c0-.12,0-.26-.07-.38-1.41-7.63-2.85-12.09-6.08-20.42a6.27,6.27,0,0,0-5.81-4.08c-7.91,0-19.61,11.89-19.61,19.61S98.53,74.16,98.53,74.16ZM63.92,1.3H60a4.44,4.44,0,0,0-4,6.34,27.47,27.47,0,0,1,2.55,11.61,27.86,27.86,0,0,1-2.36,11.26,6.28,6.28,0,0,0,1.12,7l.14.14a6.16,6.16,0,0,0,9,0,.93.93,0,0,0,.14-.14,6.31,6.31,0,0,0,1.13-7,27.82,27.82,0,0,1,.18-22.87A4.43,4.43,0,0,0,63.92,1.3ZM93.43,38.5a19.25,19.25,0,1,1,19.25-19.25A19.24,19.24,0,0,1,93.43,38.5Zm-62.92,0A19.25,19.25,0,1,1,49.76,19.25,19.25,19.25,0,0,1,30.51,38.5ZM45.28,57a7.95,7.95,0,1,1,7.95-7.95A8,8,0,0,1,45.28,57Zm33.39,0a7.95,7.95,0,1,1,8-7.95A8,8,0,0,1,78.67,57Z"/></symbol></defs><use width="124" height="87.4" transform="translate(0 18.45) scale(1.01)" xlink:href="#Logomark"/></svg>